<svg width="384" height="96" viewBox="0 0 384 96" fill="none" xmlns="http://www.w3.org/2000/svg">
<path d="M378.806 83.1617C379.395 83.1707 379.978 83.0502 380.515 82.8087C381.01 82.5874 381.441 82.2437 381.767 81.8101V76.6018C381.419 76.163 380.971 75.8148 380.46 75.5866C379.943 75.3423 379.378 75.216 378.806 75.217C378.149 75.2116 377.503 75.3851 376.937 75.719C376.38 76.0606 375.927 76.5493 375.63 77.1314C375.31 77.7694 375.149 78.4756 375.161 79.1894C375.151 79.8954 375.316 80.5929 375.641 81.2197C375.945 81.8004 376.395 82.2912 376.948 82.6431C377.506 82.9867 378.15 83.1646 378.806 83.1562M378.255 84.9935C377.318 85.0055 376.399 84.7344 375.619 84.2156C374.834 83.6858 374.195 82.9667 373.761 82.1245C373.294 81.2176 373.057 80.2095 373.071 79.1894C373.057 78.1648 373.301 77.1531 373.783 76.2487C374.233 75.4049 374.892 74.6907 375.696 74.1742C376.494 73.6627 377.423 73.3943 378.37 73.4018C379.024 73.3945 379.672 73.5242 380.273 73.7825C380.86 74.0378 381.379 74.427 381.789 74.919V73.5177H383.945V84.8555H381.811V83.3438C381.394 83.8692 380.86 84.2888 380.251 84.5687C379.625 84.857 378.943 85.0021 378.255 84.9935ZM360.825 84.8555V73.5232H362.937V75.3604C363.329 74.7337 363.868 74.2127 364.508 73.8432C365.146 73.5078 365.856 73.3326 366.576 73.3326C367.296 73.3326 368.006 73.5078 368.644 73.8432C369.236 74.1818 369.724 74.6759 370.055 75.2721C370.414 75.9353 370.593 76.681 370.574 77.4349V84.8445H368.418V78.0473C368.464 77.2548 368.196 76.476 367.673 75.879C367.414 75.6121 367.101 75.4033 366.755 75.2663C366.409 75.1294 366.038 75.0674 365.666 75.0846C365.128 75.078 364.598 75.2131 364.128 75.4763C363.642 75.7639 363.233 76.1653 362.937 76.6459V84.8611L360.825 84.8555ZM352.67 83.2279C353.31 83.2318 353.935 83.0392 354.462 82.6762C354.994 82.3078 355.42 81.8054 355.697 81.2197C356.009 80.581 356.165 79.8779 356.155 79.1673C356.172 78.4507 356.015 77.7406 355.697 77.0983C355.414 76.5261 354.988 76.0361 354.462 75.6749C353.934 75.3141 353.309 75.1217 352.67 75.1232C352.02 75.1202 351.384 75.3124 350.845 75.6749C350.316 76.033 349.89 76.5239 349.61 77.0983C349.301 77.7435 349.148 78.4522 349.163 79.1673C349.149 79.8841 349.302 80.5943 349.61 81.2418C349.887 81.8214 350.313 82.3166 350.845 82.6762C351.383 83.0409 352.02 83.2333 352.67 83.2279ZM352.67 85.0376C351.665 85.0518 350.676 84.7863 349.814 84.2707C348.969 83.7622 348.276 83.0363 347.807 82.1687C347.325 81.2466 347.073 80.2215 347.073 79.1811C347.073 78.1406 347.325 77.1156 347.807 76.1935C348.277 75.3299 348.97 74.608 349.814 74.1025C350.686 73.6 351.675 73.3354 352.681 73.3354C353.687 73.3354 354.676 73.6 355.548 74.1025C356.392 74.608 357.085 75.3299 357.555 76.1935C358.037 77.1185 358.289 78.1463 358.289 79.1894C358.289 80.2325 358.037 81.2602 357.555 82.1852C357.082 83.0453 356.389 83.7648 355.548 84.2707C354.678 84.7884 353.682 85.0539 352.67 85.0376ZM342.359 84.8555V68.337L344.465 67.9453V84.8611L342.359 84.8555ZM331.287 78.2901H337.821C337.743 77.7036 337.544 77.1399 337.237 76.6349C336.954 76.1705 336.565 75.7807 336.101 75.4984C335.636 75.2205 335.103 75.0773 334.562 75.0846C334.028 75.0798 333.502 75.2189 333.04 75.4873C332.572 75.7541 332.178 76.1333 331.894 76.5908C331.586 77.0977 331.38 77.66 331.287 78.2459M334.866 85.0431C333.846 85.0584 332.843 84.7869 331.971 84.2597C331.095 83.7286 330.373 82.9767 329.879 82.0791C329.384 81.1816 329.134 80.1699 329.153 79.1452C329.134 78.1026 329.379 77.0722 329.864 76.1494C330.317 75.2922 330.988 74.5706 331.811 74.0583C332.639 73.5481 333.595 73.2823 334.568 73.2915C335.527 73.2787 336.471 73.541 337.286 74.0473C338.068 74.5701 338.696 75.2919 339.106 76.1383C339.569 77.0578 339.8 78.077 339.778 79.1066V79.6583H331.155C331.201 80.3227 331.412 80.9653 331.767 81.5287C332.093 82.0607 332.55 82.4997 333.096 82.8031C333.638 83.1075 334.249 83.2653 334.871 83.261C335.419 83.266 335.963 83.1687 336.476 82.9742C336.962 82.7969 337.402 82.5099 337.76 82.1355L339.161 83.4928C338.531 83.9942 337.828 84.3961 337.077 84.6845C336.341 84.9496 335.565 85.0823 334.783 85.0762M323.512 85.0266C322.5 85.0366 321.504 84.7675 320.634 84.2487C319.778 83.7383 319.074 83.0089 318.594 82.1355C318.093 81.2316 317.836 80.2121 317.85 79.1783C317.835 78.1356 318.091 77.1069 318.594 76.1935C319.075 75.3128 319.788 74.5803 320.655 74.0747C321.521 73.5692 322.509 73.3098 323.512 73.3246C324.354 73.3211 325.188 73.4842 325.966 73.8046C326.727 74.1097 327.415 74.5722 327.984 75.1618L326.611 76.5852C326.237 76.1463 325.77 75.7958 325.244 75.559C324.724 75.323 324.16 75.2025 323.59 75.2059C322.933 75.2023 322.29 75.3943 321.742 75.7576C321.194 76.1159 320.748 76.61 320.447 77.1921C320.131 77.8165 319.967 78.5063 319.967 79.2059C319.967 79.9055 320.131 80.5953 320.447 81.2197C320.752 81.796 321.197 82.2857 321.742 82.6431C322.291 83.0043 322.933 83.1962 323.59 83.1948C324.157 83.1923 324.718 83.0707 325.235 82.8379C325.753 82.605 326.216 82.2662 326.595 81.8432L327.968 83.2445C327.403 83.8412 326.714 84.3064 325.95 84.6073C325.17 84.9215 324.336 85.0808 323.496 85.0762M310.593 84.8942V73.5232H312.705V75.9121C312.942 75.1658 313.384 74.5007 313.979 73.9921C314.506 73.5617 315.168 73.3312 315.848 73.3411C316.032 73.3409 316.216 73.352 316.399 73.3742C316.586 73.4014 316.771 73.4439 316.951 73.5011V75.4045C316.739 75.3282 316.522 75.271 316.3 75.2335C316.076 75.1955 315.849 75.1771 315.622 75.1783C315.001 75.1754 314.395 75.3685 313.891 75.7301C313.357 76.1188 312.941 76.6477 312.689 77.2583V84.8776L310.593 84.8942ZM302.284 83.1948C302.873 83.2038 303.456 83.0833 303.993 82.8418C304.488 82.6205 304.919 82.2768 305.245 81.8432V76.6349C304.903 76.2009 304.462 75.8548 303.96 75.6252C303.443 75.3809 302.878 75.2547 302.306 75.2556C301.649 75.2494 301.002 75.423 300.437 75.7576C299.879 76.0992 299.427 76.5879 299.13 77.1701C298.81 77.808 298.649 78.5142 298.661 79.228C298.651 79.934 298.816 80.6316 299.141 81.2583C299.445 81.839 299.895 82.3298 300.448 82.6817C301.006 83.0253 301.65 83.2032 302.306 83.1948M301.754 85.0321C300.818 85.0441 299.899 84.773 299.119 84.2542C298.332 83.7261 297.693 83.0065 297.261 82.1631C296.793 81.2562 296.557 80.2481 296.571 79.228C296.557 78.2034 296.801 77.1917 297.283 76.2873C297.733 75.4435 298.391 74.7293 299.196 74.2128C299.994 73.7013 300.923 73.433 301.87 73.4404C302.524 73.4332 303.172 73.5628 303.773 73.8211C304.36 74.0764 304.879 74.4656 305.289 74.9576V73.5563H307.445V84.8942H305.311V83.3824C304.894 83.9078 304.36 84.3274 303.751 84.6073C303.125 84.8956 302.443 85.0407 301.754 85.0321ZM284.005 83.0128H288.593C289.442 83.0549 290.277 82.7862 290.942 82.2569C291.23 82.0125 291.459 81.7058 291.612 81.3598C291.765 81.0139 291.837 80.6377 291.824 80.2597C291.839 79.8831 291.767 79.5082 291.614 79.1638C291.461 78.8195 291.231 78.5149 290.942 78.2735C290.274 77.75 289.44 77.4855 288.593 77.5287H284.005V83.0128ZM284.005 75.7135H288.361C289.12 75.75 289.866 75.5109 290.462 75.0404C290.721 74.8191 290.927 74.5417 291.064 74.2292C291.2 73.9167 291.264 73.5771 291.25 73.2363C291.267 72.8897 291.205 72.5439 291.071 72.2241C290.936 71.9043 290.732 71.6187 290.473 71.388C289.877 70.9093 289.125 70.6676 288.361 70.7094H284.005V75.7135ZM281.761 84.8611V68.7949H288.576C289.471 68.7735 290.36 68.9506 291.179 69.3135C291.88 69.6237 292.477 70.1293 292.899 70.7701C293.315 71.4296 293.526 72.1975 293.506 72.977C293.519 73.7746 293.26 74.5528 292.772 75.1839C292.262 75.8244 291.576 76.3019 290.798 76.5577C291.725 76.7692 292.566 77.2579 293.208 77.959C293.805 78.635 294.124 79.5122 294.101 80.4142C294.125 81.2389 293.901 82.0517 293.457 82.7472C293.014 83.4428 292.372 83.989 291.614 84.3149C290.747 84.6993 289.806 84.8877 288.857 84.8666L281.761 84.8611ZM265.296 78.2956H271.836C271.756 77.7097 271.557 77.1465 271.251 76.6404C270.969 76.176 270.58 75.7862 270.116 75.5038C269.651 75.226 269.118 75.0828 268.577 75.0901C268.043 75.0853 267.517 75.2244 267.055 75.4928C266.587 75.7596 266.193 76.1389 265.908 76.5963C265.601 77.1032 265.395 77.6655 265.302 78.2514M268.875 85.0487C267.858 85.0635 266.856 84.792 265.986 84.2652C265.11 83.7341 264.388 82.9822 263.894 82.0847C263.399 81.1871 263.149 80.1754 263.168 79.1507C263.149 78.1082 263.394 77.0777 263.879 76.1549C264.328 75.2954 265.001 74.573 265.826 74.0639C266.654 73.5536 267.61 73.2878 268.583 73.297C269.542 73.2842 270.486 73.5465 271.301 74.0528C272.1 74.5582 272.75 75.2689 273.181 76.1108C273.642 77.0311 273.873 78.0497 273.854 79.079V79.6307H265.219C265.267 80.2942 265.475 80.9361 265.826 81.5011C266.156 82.0321 266.615 82.4707 267.16 82.7756C267.702 83.0799 268.314 83.2377 268.936 83.2335C269.484 83.2384 270.028 83.1411 270.54 82.9466C271.026 82.7679 271.466 82.4811 271.825 82.108L273.225 83.4652C272.594 83.9679 271.89 84.3699 271.136 84.6569C270.4 84.9231 269.624 85.0557 268.842 85.0487M255.443 83.1176C256.028 83.1279 256.609 83.0073 257.141 82.7645C257.639 82.5329 258.073 82.1824 258.404 81.7438V76.5577C258.053 76.1282 257.61 75.7832 257.108 75.548C256.592 75.301 256.026 75.1746 255.454 75.1783C254.797 75.1721 254.151 75.3457 253.585 75.6804C253.028 76.0219 252.576 76.5107 252.278 77.0928C251.958 77.7308 251.797 78.4369 251.809 79.1507C251.799 79.8568 251.964 80.5543 252.289 81.1811C252.593 81.7618 253.043 82.2526 253.596 82.6045C254.154 82.9481 254.799 83.126 255.454 83.1176M254.903 84.9548C253.966 84.9669 253.047 84.6958 252.267 84.1769C251.481 83.6488 250.841 82.9293 250.409 82.0859C249.942 81.179 249.705 80.1709 249.72 79.1507C249.705 78.1262 249.95 77.1145 250.431 76.2101C250.881 75.3663 251.54 74.6521 252.344 74.1356C253.142 73.6241 254.071 73.3557 255.019 73.3632C255.673 73.3569 256.322 73.4905 256.921 73.7549C257.501 74.0074 258.018 74.3841 258.437 74.8583V68.337L260.593 67.9453V84.8611H258.459V83.3714C258.038 83.8796 257.509 84.2868 256.91 84.5631C256.282 84.8571 255.596 85.006 254.903 84.999M238.62 90.301C238.107 90.3082 237.595 90.2357 237.104 90.0859C236.68 89.9496 236.289 89.7259 235.957 89.4293L236.718 88.5576C237.215 88.9857 237.848 89.2224 238.504 89.2252C238.881 89.2469 239.254 89.1462 239.569 88.9383C239.693 88.8434 239.793 88.7194 239.86 88.5771C239.926 88.4348 239.957 88.2785 239.949 88.1217C239.954 87.9664 239.919 87.8125 239.846 87.6751C239.774 87.5377 239.667 87.4216 239.535 87.3383C239.188 87.1366 238.79 87.0407 238.389 87.0624H237.65L238.129 85.021C237.202 84.9245 236.314 84.5942 235.549 84.0611C234.784 83.5325 234.162 82.8214 233.74 81.9921C233.294 81.0908 233.07 80.096 233.085 79.0904C233.1 78.0848 233.355 77.0973 233.829 76.2101C234.311 75.3396 235.017 74.6139 235.874 74.108C236.745 73.593 237.741 73.3277 238.752 73.3411C239.594 73.3388 240.428 73.5018 241.206 73.8211C241.965 74.1288 242.653 74.591 243.224 75.1783L241.846 76.6018C241.474 76.1624 241.009 75.8118 240.484 75.5756C239.964 75.3403 239.4 75.2199 238.83 75.2225C238.175 75.2199 237.534 75.412 236.988 75.7742C236.438 76.1321 235.99 76.6262 235.687 77.2087C235.371 77.833 235.207 78.5229 235.207 79.2225C235.207 79.9221 235.371 80.6119 235.687 81.2362C235.993 81.8132 236.441 82.303 236.988 82.6597C237.535 83.0201 238.175 83.212 238.83 83.2114C239.397 83.2106 239.959 83.0898 240.477 82.8568C240.994 82.6239 241.457 82.2841 241.835 81.8597L243.213 83.261C242.693 83.7813 242.087 84.207 241.421 84.519C240.743 84.8363 240.012 85.0235 239.265 85.0707L239.017 86.2459C239.602 86.2449 240.17 86.4391 240.633 86.7976C240.827 86.9563 240.982 87.1569 241.087 87.3843C241.192 87.6118 241.244 87.8602 241.239 88.1107C241.242 88.4136 241.176 88.7132 241.047 88.9873C240.918 89.2614 240.73 89.503 240.495 89.6941C239.964 90.1313 239.291 90.3589 238.604 90.3341M225.833 84.8942V73.5232H227.945V75.9121C228.187 75.1678 228.627 74.5038 229.219 73.9921C229.746 73.5625 230.408 73.3321 231.088 73.3411C231.272 73.3407 231.457 73.3518 231.639 73.3742C231.827 73.4011 232.011 73.4435 232.191 73.5011V75.4045C231.978 75.3282 231.758 75.271 231.535 75.2335C231.313 75.1957 231.087 75.1773 230.862 75.1783C230.241 75.1739 229.635 75.3671 229.131 75.7301C228.597 76.1199 228.179 76.6484 227.923 77.2583V84.8776L225.833 84.8942ZM214.805 78.3287H221.345C221.265 77.7428 221.066 77.1796 220.761 76.6735C220.478 76.2091 220.089 75.8193 219.625 75.5369C219.16 75.2591 218.628 75.1159 218.086 75.1232C217.552 75.1178 217.026 75.257 216.564 75.5259C216.097 75.7927 215.702 76.172 215.418 76.6294C215.11 77.1371 214.902 77.6989 214.805 78.2845M218.384 85.0818C217.367 85.0972 216.365 84.8256 215.495 84.2983C214.619 83.7672 213.897 83.0153 213.403 82.1178C212.909 81.2202 212.658 80.2085 212.677 79.1839C212.657 78.1417 212.9 77.1113 213.383 76.188C213.835 75.3292 214.509 74.6072 215.335 74.097C216.163 73.5864 217.119 73.3206 218.092 73.3301C219.052 73.3167 219.995 73.579 220.81 74.0859C221.612 74.5882 222.262 75.2996 222.69 76.1439C223.156 77.0628 223.389 78.0821 223.369 79.1121V79.6638H214.745C214.792 80.3273 215.001 80.9692 215.351 81.5342C215.681 82.0652 216.14 82.5038 216.686 82.8087C217.228 83.1137 217.84 83.2716 218.461 83.2666C219.009 83.2706 219.553 83.1734 220.066 82.9797C220.552 82.801 220.991 82.5142 221.351 82.1411L222.751 83.4983C222.12 84.001 221.415 84.403 220.661 84.69C219.926 84.9562 219.149 85.0889 218.368 85.0818M193.742 84.85V73.5232H195.849V75.2887C196.241 74.7016 196.754 74.205 197.354 73.8321C197.961 73.4946 198.647 73.3253 199.341 73.3418C200.035 73.3583 200.712 73.56 201.302 73.9259C201.89 74.3207 202.354 74.8733 202.642 75.5204C203.029 74.8421 203.581 74.2727 204.246 73.8652C204.902 73.4893 205.647 73.2985 206.402 73.3135C207.103 73.3063 207.791 73.4976 208.387 73.8652C208.961 74.2134 209.422 74.719 209.716 75.3218C210.042 75.9971 210.203 76.7403 210.185 77.4901V84.8555H208.079V77.9756C208.118 77.2101 207.873 76.4571 207.389 75.8625C207.156 75.6037 206.869 75.3997 206.547 75.2652C206.226 75.1307 205.879 75.069 205.531 75.0846C205.026 75.077 204.529 75.2128 204.098 75.4763C203.644 75.7753 203.267 76.1757 202.995 76.6459L203.044 77.0597C203.044 77.1976 203.044 77.3411 203.044 77.4956V84.8611H200.888V77.9756C200.929 77.2118 200.688 76.4597 200.21 75.8625C199.98 75.603 199.694 75.3984 199.375 75.2638C199.055 75.1292 198.709 75.0679 198.363 75.0846C197.848 75.0866 197.343 75.2256 196.899 75.4874C196.455 75.7491 196.089 76.1242 195.838 76.5742V84.85H193.742ZM185.587 83.2225C186.227 83.2263 186.852 83.0338 187.379 82.6707C187.912 82.3023 188.338 81.7999 188.614 81.2142C188.926 80.5755 189.083 79.8724 189.072 79.1618C189.09 78.4452 188.933 77.735 188.614 77.0928C188.331 76.5206 187.906 76.0306 187.379 75.6694C186.851 75.3086 186.227 75.1162 185.587 75.1177C184.937 75.1147 184.302 75.3069 183.762 75.6694C183.233 76.0276 182.807 76.5184 182.527 77.0928C182.218 77.738 182.065 78.4466 182.08 79.1618C182.067 79.8785 182.219 80.5887 182.527 81.2362C182.804 81.8159 183.23 82.3111 183.762 82.6707C184.301 83.0354 184.937 83.2278 185.587 83.2225ZM185.587 85.0321C184.583 85.0463 183.594 84.7808 182.731 84.2652C181.886 83.7566 181.193 83.0308 180.724 82.1631C180.242 81.241 179.991 80.216 179.991 79.1756C179.991 78.1351 180.242 77.1101 180.724 76.188C181.195 75.3244 181.888 74.6025 182.731 74.097C183.603 73.5944 184.592 73.3299 185.598 73.3299C186.605 73.3299 187.593 73.5944 188.466 74.097C189.309 74.6025 190.002 75.3244 190.473 76.188C190.954 77.113 191.206 78.1407 191.206 79.1839C191.206 80.227 190.954 81.2547 190.473 82.1797C189.999 83.0398 189.307 83.7593 188.466 84.2652C187.596 84.7828 186.599 85.0484 185.587 85.0321ZM172.354 85.1038C171.266 85.1148 170.188 84.9081 169.181 84.496C168.175 84.0838 167.26 83.4745 166.493 82.7038C165.738 81.9505 165.142 81.0538 164.739 80.0666C163.908 77.9818 163.908 75.6576 164.739 73.5728C165.142 72.5839 165.738 71.6854 166.493 70.9301C167.244 70.1764 168.136 69.5767 169.117 69.1646C170.143 68.7378 171.243 68.522 172.354 68.5301C173.142 68.5285 173.926 68.6419 174.681 68.8666C175.419 69.0866 176.125 69.4019 176.782 69.8046C177.43 70.2047 178.011 70.7057 178.502 71.2887L176.986 72.7783C176.429 72.0715 175.716 71.5046 174.901 71.1232C174.103 70.7547 173.233 70.5663 172.354 70.5714C171.545 70.5637 170.744 70.7234 169.999 71.0404C169.284 71.348 168.64 71.8007 168.108 72.3701C167.572 72.9479 167.149 73.6217 166.862 74.3563C166.259 75.9337 166.259 77.6782 166.862 79.2556C167.146 79.9948 167.569 80.6728 168.108 81.2528C168.638 81.8239 169.283 82.2769 169.999 82.5824C170.778 82.9115 171.616 83.0728 172.461 83.0557C173.306 83.0386 174.137 82.8435 174.901 82.4831C175.711 82.0946 176.424 81.529 176.986 80.828L178.502 82.3231C178.011 82.9042 177.43 83.4034 176.782 83.8018C176.125 84.2061 175.419 84.5232 174.681 84.7452C173.925 84.9681 173.141 85.0797 172.354 85.0762M148.407 78.257H154.946C154.866 77.6711 154.668 77.1079 154.362 76.6018C154.078 76.1386 153.689 75.7491 153.226 75.4653C152.761 75.1888 152.229 75.0456 151.688 75.0515C151.152 75.0468 150.624 75.1858 150.16 75.4542C149.694 75.7232 149.3 76.102 149.013 76.5577C148.706 77.0646 148.5 77.6269 148.407 78.2128M151.986 85.01C150.968 85.0254 149.967 84.7539 149.096 84.2266C148.237 83.7433 147.516 83.0482 147.001 82.2073C146.48 81.2917 146.214 80.2536 146.229 79.2004C146.21 78.1578 146.455 77.1274 146.94 76.2045C147.393 75.3457 148.067 74.6238 148.892 74.1135C149.72 73.6022 150.676 73.3362 151.649 73.3466C152.616 73.328 153.567 73.5885 154.39 74.097C155.186 74.5971 155.833 75.3022 156.264 76.1383C156.73 77.0573 156.963 78.0766 156.943 79.1066V79.6583H148.324C148.372 80.3218 148.58 80.9637 148.931 81.5287C149.258 82.0595 149.716 82.4981 150.26 82.8031C150.804 83.1075 151.417 83.2652 152.041 83.261C152.589 83.2646 153.132 83.1674 153.645 82.9742C154.133 82.8004 154.576 82.5195 154.941 82.1521L156.341 83.5093C155.71 84.012 155.006 84.4141 154.252 84.7011C153.516 84.9662 152.74 85.0988 151.958 85.0928M138.559 83.1617C139.144 83.1709 139.724 83.0504 140.257 82.8087C140.753 82.5756 141.185 82.2252 141.515 81.788V76.6018C141.165 76.1711 140.722 75.8258 140.219 75.5921C139.703 75.3444 139.137 75.218 138.565 75.2225C137.907 75.2157 137.261 75.3894 136.695 75.7245C136.137 76.0645 135.684 76.5536 135.389 77.137C135.066 77.7744 134.904 78.4806 134.914 79.1949C134.903 79.9016 135.07 80.5998 135.4 81.2252C135.702 81.8071 136.153 82.2983 136.706 82.6486C137.265 82.9928 137.909 83.1708 138.565 83.1617M138.013 84.999C137.075 85.0111 136.154 84.74 135.372 84.2211C134.588 83.6898 133.95 82.971 133.514 82.13C133.048 81.2227 132.814 80.2146 132.83 79.1949C132.815 78.1703 133.06 77.1586 133.541 76.2542C133.99 75.4093 134.649 74.6947 135.455 74.1797C136.252 73.6674 137.181 73.3989 138.129 73.4073C138.784 73.4022 139.432 73.5357 140.031 73.799C140.61 74.0517 141.125 74.4284 141.542 74.9025V68.337L143.698 67.9453V84.8611H141.57V83.3714C141.149 83.8796 140.619 84.2868 140.02 84.5631C139.392 84.856 138.706 85.0049 138.013 84.999Z" fill="#010203"/>
<path d="M47.9711 79.7076C42.6052 79.7138 37.3256 78.3567 32.6271 75.7635C27.9286 73.1704 23.965 69.426 21.1077 64.8814C18.2505 60.3368 16.5931 55.1408 16.291 49.7802C15.9889 44.4196 17.0519 39.0701 19.3804 34.2329C21.7089 29.3957 25.2267 25.2292 29.6041 22.1239C33.9815 19.0186 39.0751 17.0762 44.4076 16.4787C49.7402 15.8812 55.137 16.6482 60.0924 18.7077C65.0478 20.7673 69.3995 24.052 72.7396 28.2541L74.9783 31.0513L65.1966 38.2568L63.1123 35.9009C58.1498 30.301 52.487 27.9506 45.7821 28.7285C41.9574 29.1997 38.3559 30.7872 35.427 33.2931C32.4981 35.7989 30.3713 39.1121 29.312 42.8195C28.6291 45.2549 28.4325 47.8012 28.7334 50.3127C29.0342 52.8242 29.8267 55.2517 31.0655 57.4567C32.6072 60.2436 34.814 62.6056 37.4892 64.3322C40.1644 66.0588 43.2249 67.0965 46.398 67.3526C49.5712 67.6088 52.7584 67.0756 55.6756 65.8004C58.5929 64.5253 61.1495 62.5478 63.1178 60.0443L65.2627 57.3629L74.8956 65.0318L72.7837 67.7132C67.5421 74.2726 59.9334 78.5073 51.5993 79.5035C50.4055 79.6372 49.2054 79.7053 48.0042 79.7076" fill="#E0071B"/>
<path d="M115.825 47.9671L81.8763 13.9976C77.4307 9.53694 72.145 6.003 66.3251 3.60036C60.5053 1.19772 54.2669 -0.0258771 47.9712 0.000414878H46.9456V9.07624H47.9106C55.615 9.05768 63.1516 11.3271 69.5663 15.597C75.9809 19.867 80.985 25.9455 83.945 33.0629C86.9049 40.1804 87.6876 48.0166 86.1939 55.5794C84.7002 63.1422 80.9973 70.0914 75.5541 75.5471C70.1109 81.0029 63.1721 84.7198 55.6164 86.2273C48.0607 87.7347 40.2279 86.9649 33.1097 84.0153C25.9915 81.0657 19.9081 76.069 15.6298 69.6578C11.3515 63.2466 9.07062 55.7093 9.07606 48.0002V47.9174H0.000140106V48.0002C-0.0150866 54.2968 1.21095 60.5345 3.60805 66.3563C6.00515 72.1782 9.52626 77.4698 13.9698 81.9283C18.4133 86.3868 23.692 89.9246 29.5038 92.3392C35.3155 94.7539 41.5461 95.9978 47.8389 96C54.2777 95.9966 60.6512 94.708 66.5862 92.2097C71.2508 90.2517 75.5759 87.5665 79.4005 84.2539C80.6301 83.1504 81.7164 82.0966 82.8743 80.9435L115.825 47.9671Z" fill="#E0071B"/>
<path d="M375.321 38.0306C375.321 43.294 371.461 47.5699 366.648 47.5699C361.834 47.5699 357.969 43.4264 357.969 38.0306C357.969 32.5134 361.828 28.2982 366.648 28.2982C371.467 28.2982 375.321 32.6403 375.321 38.0306ZM384 20.9989H375.729V24.6127C374.388 23.2142 372.774 22.1074 370.987 21.3613C369.199 20.6151 367.277 20.2457 365.341 20.2762C356.519 20.2762 349.24 27.901 349.24 37.9644C349.24 48.0278 356.535 55.6195 365.341 55.6195C367.278 55.6502 369.2 55.2804 370.988 54.5333C372.775 53.7861 374.389 52.6777 375.729 51.2774V54.8967H384V20.9989ZM346.996 35.0734C346.996 26.1244 341.736 20.1438 333.763 20.1438C332.088 20.1347 330.432 20.5023 328.919 21.2195C327.405 21.9367 326.072 22.9851 325.018 24.2872V20.9769H316.747V54.8471H325.426V35.0734C325.426 31.2555 328.122 28.3644 331.998 28.3644C337.716 28.3644 338.306 33.0982 338.306 35.0734V36.7837H346.985L346.996 35.0734ZM303.817 38.0306C303.817 43.4264 299.957 47.5699 295.143 47.5699C290.33 47.5699 286.464 43.294 286.464 38.0306C286.464 32.6403 290.324 28.2982 295.143 28.2982C299.962 28.2982 303.817 32.5079 303.817 38.0306ZM312.495 37.9644C312.495 27.901 305.267 20.2762 296.389 20.2762C292.691 20.2351 289.126 21.6522 286.464 24.221V5.93695H277.725V54.8692H286.073V51.2499C287.402 52.6436 289.004 53.7484 290.779 54.4954C292.554 55.2425 294.464 55.6157 296.389 55.5919C305.267 55.5919 312.495 47.9616 312.495 37.9368M271.748 35.0458C271.748 26.1631 266.487 20.1162 257.411 20.1162C255.44 20.0831 253.487 20.4979 251.699 21.3293C249.911 22.1607 248.335 23.3871 247.089 24.9162C245.89 23.3846 244.351 22.1534 242.594 21.3203C240.837 20.4871 238.91 20.0749 236.966 20.1162C235.29 20.0929 233.63 20.4543 232.115 21.1725C230.6 21.8908 229.27 22.9468 228.226 24.2596V20.9493H219.878V54.8195H228.618V35.0734C228.618 31.2555 231.314 28.3644 235.13 28.3644C240.848 28.3644 241.438 33.0982 241.438 35.0734V54.8692H250.183V35.0734C250.183 31.2555 252.874 28.3644 256.75 28.3644C262.407 28.3644 263.063 33.0982 263.063 35.0734V54.8692H271.742L271.748 35.0458ZM204.831 38.003C204.831 43.2664 200.971 47.5423 196.157 47.5423C191.344 47.5423 187.473 43.4264 187.473 38.0306C187.473 32.5134 191.333 28.2982 196.146 28.2982C200.96 28.2982 204.82 32.6403 204.82 38.0306M213.499 20.9989H205.228V24.6127C203.888 23.2144 202.275 22.1076 200.488 21.3614C198.702 20.6153 196.781 20.2458 194.845 20.2762C186.023 20.2762 178.739 27.901 178.739 37.9644C178.739 48.0278 186.034 55.6195 194.845 55.6195C196.781 55.6501 198.703 55.2803 200.489 54.5331C202.276 53.7859 203.889 52.6776 205.228 51.2774V54.8967H213.499V20.9989ZM153.948 8.18797C154.814 8.08902 155.685 8.03929 156.556 8.03901C160.142 8.05215 163.68 8.86578 166.912 10.4206C170.144 11.9754 172.988 14.2322 175.238 17.0265L176.655 18.7976L169.884 23.7631L168.566 22.2734C164.673 17.8596 160.207 16.0169 154.913 16.6238C151.898 16.9955 149.058 18.2474 146.749 20.2234C144.439 22.1995 142.763 24.8121 141.928 27.7355C141.387 29.6566 141.231 31.6657 141.469 33.6474C141.706 35.6291 142.332 37.5443 143.312 39.283C144.531 41.4775 146.272 43.3369 148.381 44.696C150.491 46.0552 152.903 46.872 155.404 47.074C157.905 47.276 160.417 46.8568 162.716 45.8538C165.016 44.8508 167.033 43.2949 168.588 41.3244L169.939 39.6251L176.605 44.9271L175.243 46.632C171.304 51.5472 165.593 54.7174 159.341 55.4595C158.446 55.5632 157.546 55.6148 156.645 55.614C150.6 55.5657 144.8 53.2175 140.423 49.0462C136.045 44.8749 133.418 39.193 133.075 33.1542C132.732 27.1154 134.698 21.1722 138.575 16.5313C142.452 11.8904 147.948 8.8995 153.948 8.16589" fill="#010203"/>
</svg>
